<?xml version="1.0" standalone="no"?>
<!DOCTYPE svg PUBLIC "-//W3C//DTD SVG 20010904//EN"
 "http://www.w3.org/TR/2001/REC-SVG-20010904/DTD/svg10.dtd">
<svg version="1.0" xmlns="http://www.w3.org/2000/svg"
 width="500.000000pt" height="500.000000pt" viewBox="0 0 500.000000 500.000000"
 preserveAspectRatio="xMidYMid meet">

<g transform="translate(0.000000,500.000000) scale(0.100000,-0.100000)"
fill="#000000" stroke="none">
<path d="M738 3785 c-2 -20 -2 -38 1 -40 2 -3 25 -5 51 -5 l46 0 -4 38 c-2 28
-1 33 7 22 9 -13 11 -13 11 3 0 14 -9 17 -54 17 l-54 0 -4 -35z"/>
<path d="M2270 3809 c-93 -10 -209 -37 -292 -69 -81 -31 -80 -30 -71 -86 l8
-48 243 -159 242 -158 239 158 c225 148 240 160 246 193 3 19 8 42 11 52 4 13
-13 23 -74 47 -157 60 -381 89 -552 70z m265 -259 l-136 -90 -137 90 -137 90
273 0 274 0 -137 -90z"/>
<path d="M3880 3784 c0 -6 25 -155 55 -330 l55 -319 65 -65 65 -65 66 66 67
67 53 313 c30 173 53 319 52 325 -2 7 -34 -46 -73 -117 l-70 -129 -92 0 c-107
0 -86 -18 -182 155 -33 61 -61 105 -61 99z m320 -361 c0 -26 -80 -245 -84
-233 -18 47 -76 225 -76 232 0 4 36 8 80 8 44 0 80 -3 80 -7z"/>
<path d="M222 3633 c-14 -176 -33 -308 -72 -503 -16 -79 -28 -145 -27 -147 1
-1 23 13 48 32 53 38 47 7 73 370 30 405 29 395 9 395 -17 0 -20 -15 -31 -147z"/>
<path d="M1335 3733 c3 -27 10 -113 15 -193 12 -159 37 -417 45 -466 4 -23 17
-39 46 -59 23 -14 42 -25 44 -23 2 2 -14 89 -35 193 -36 183 -61 353 -76 518
-5 66 -9 77 -25 77 -16 0 -17 -6 -14 -47z"/>
<path d="M1570 3721 c0 -17 80 -463 84 -469 2 -4 62 -47 133 -95 l129 -87 147
-16 c81 -9 150 -14 154 -11 7 8 -12 156 -34 251 l-15 68 -158 103 -158 104 -8
68 -9 68 -50 6 c-75 10 -215 17 -215 10z m342 -268 c164 -106 178 -117 184
-149 3 -19 4 -37 1 -40 -4 -4 -389 235 -403 250 -1 0 -5 21 -9 45 l-7 45 28
-19 c16 -10 109 -70 206 -132z m1 -133 l196 -125 7 -43 c3 -24 5 -44 3 -46 -4
-3 -392 242 -402 254 -9 11 -17 92 -8 88 5 -1 97 -59 204 -128z"/>
<path d="M3155 3723 c-27 -1 -82 -5 -121 -9 l-71 -5 -13 -70 -12 -70 -154
-102 c-150 -100 -153 -103 -163 -147 -16 -69 -46 -279 -41 -283 3 -2 72 4 154
14 166 20 147 12 341 154 l70 52 38 214 c21 118 41 224 44 237 3 15 1 21 -8
20 -8 -1 -36 -3 -64 -5z m-42 -169 c-4 -34 -12 -44 -47 -66 -22 -14 -112 -71
-199 -127 -87 -55 -160 -101 -162 -101 -10 0 -4 57 8 73 11 15 399 269 404
264 1 -1 -1 -21 -4 -43z m-19 -146 c-4 -24 -8 -44 -9 -46 -1 -2 -92 -60 -201
-131 -205 -132 -213 -134 -200 -68 5 29 28 46 204 159 108 70 200 127 205 127
4 1 4 -18 1 -41z"/>
<path d="M3335 3705 c3 -17 23 -155 44 -307 l39 -278 128 -178 c71 -98 228
-316 349 -485 121 -168 222 -306 225 -306 4 0 479 655 679 935 22 30 30 72 67
337 23 166 41 303 40 304 -1 1 -26 -31 -56 -72 -29 -41 -59 -80 -65 -85 -7 -6
-97 -35 -199 -64 -103 -30 -189 -56 -192 -59 -5 -4 -24 -110 -20 -114 0 0 79
19 174 44 95 25 175 43 178 40 3 -2 1 -20 -3 -38 l-9 -33 -177 -45 -177 -46 0
-38 c0 -30 3 -38 15 -34 8 4 79 23 157 43 79 20 149 39 156 41 8 4 12 -8 12
-39 l0 -44 -137 -33 c-231 -57 -224 -53 -338 -152 l-105 -90 -88 77 c-48 42
-100 85 -116 95 -16 10 -107 37 -202 60 l-174 43 0 44 c0 37 3 43 18 38 9 -3
86 -23 170 -45 l152 -39 0 37 0 37 -132 34 c-229 57 -225 56 -231 93 -2 17 -3
34 -1 36 2 2 82 -17 178 -42 l175 -45 -6 51 c-3 29 -9 56 -14 61 -7 8 -191 64
-345 105 -35 9 -51 23 -99 89 -76 101 -76 102 -70 67z m480 -760 c105 -31 198
-58 208 -61 9 -3 17 -9 17 -13 0 -4 -25 -55 -55 -113 l-55 -105 -117 121
c-203 208 -229 239 -208 233 11 -3 106 -31 210 -62z m785 8 c-30 -32 -107
-113 -172 -179 l-117 -122 -57 110 c-30 60 -54 111 -52 113 1 2 41 15 88 29
47 14 144 43 215 65 72 22 134 40 139 41 5 0 -15 -26 -44 -57z"/>
<path d="M730 3690 c0 -30 1 -30 55 -30 51 0 55 2 55 24 0 13 6 27 13 29 6 3
-18 6 -55 6 l-68 1 0 -30z"/>
<path d="M861 3684 c0 -11 3 -14 6 -6 3 7 2 16 -1 19 -3 4 -6 -2 -5 -13z"/>
<path d="M720 3610 l0 -30 65 0 c63 0 65 1 65 25 0 26 15 34 23 13 2 -8 3 -7
3 2 -1 12 -18 16 -79 18 l-77 3 0 -31z"/>
<path d="M642 3600 c-60 -21 -123 -57 -164 -92 l-27 -23 31 -155 c17 -85 32
-157 33 -158 2 -2 36 13 77 35 l73 38 17 170 c10 94 19 178 22 188 5 21 4 21
-62 -3z"/>
<path d="M900 3593 c0 -10 9 -90 20 -177 11 -88 20 -166 20 -173 0 -7 36 -31
80 -53 79 -40 80 -40 84 -18 15 72 14 77 -18 102 -59 45 -126 191 -126 273 0
29 5 27 113 -51 62 -45 77 -52 77 -36 0 25 -60 73 -144 115 -77 39 -106 44
-106 18z"/>
<path d="M328 3573 c-11 -12 -27 -99 -52 -274 -32 -224 -38 -303 -51 -630
l-15 -374 36 -32 36 -32 94 62 94 62 0 160 0 160 -65 74 -65 74 0 69 c0 61 -2
68 -20 68 -17 0 -20 7 -20 48 l0 48 65 32 c36 17 65 37 65 44 0 27 -74 443
-80 451 -4 4 -13 -1 -22 -10z"/>
<path d="M1216 3367 c-20 -122 -36 -230 -36 -239 0 -12 22 -29 63 -49 34 -17
63 -32 63 -33 1 0 5 -20 9 -43 6 -39 5 -43 -14 -43 -19 0 -21 -6 -21 -71 l0
-72 -53 -61 c-30 -34 -59 -71 -65 -83 -8 -13 -12 -76 -12 -167 l0 -144 96 -67
97 -67 34 35 35 34 -17 349 c-14 303 -21 383 -56 609 -49 323 -47 313 -68 325
-17 8 -21 -9 -55 -213z"/>
<path d="M383 3550 c3 -14 20 -112 38 -217 22 -131 37 -193 45 -193 7 0 15 4
18 9 4 5 -8 92 -25 193 -28 158 -35 186 -57 208 l-24 25 5 -25z"/>
<path d="M1197 3553 c-17 -20 -83 -395 -72 -413 21 -34 32 2 66 210 19 121 32
220 29 220 -4 0 -14 -8 -23 -17z"/>
<path d="M710 3525 c0 -24 2 -25 76 -25 65 0 75 2 70 16 -3 9 -6 20 -6 25 0 5
-31 9 -70 9 -68 0 -70 -1 -70 -25z"/>
<path d="M881 3534 c0 -11 3 -14 6 -6 3 7 2 16 -1 19 -3 4 -6 -2 -5 -13z"/>
<path d="M707 3473 c-4 -3 -7 -17 -7 -30 0 -22 3 -23 80 -23 79 0 80 0 80 25
0 29 26 35 33 8 4 -14 5 -12 6 5 1 21 -2 22 -92 22 -52 0 -97 -3 -100 -7z"/>
<path d="M694 3376 c-3 -14 -3 -29 0 -34 3 -5 43 -9 88 -8 83 1 83 1 86 29 3
27 26 37 35 15 3 -8 6 -6 6 5 1 15 -10 17 -104 17 -103 0 -105 0 -111 -24z"/>
<path d="M686 3294 c-16 -41 -10 -44 94 -44 l100 0 0 30 0 30 -94 0 c-76 0
-95 -3 -100 -16z"/>
<path d="M2250 3302 c0 -4 9 -70 20 -147 13 -88 23 -221 27 -357 l6 -218 97 0
97 0 6 223 c6 195 20 350 43 472 l7 37 -76 -51 -75 -50 -76 49 c-42 27 -76 46
-76 42z"/>
<path d="M680 3220 c0 -6 7 -22 16 -35 15 -24 22 -25 106 -25 l90 0 -7 31 c-7
31 -6 31 23 27 17 -2 29 -1 26 4 -8 12 -254 10 -254 -2z"/>
<path d="M500 3137 c-163 -92 -162 -84 -7 -105 l68 -9 18 41 c10 23 34 59 55
80 25 27 34 45 30 58 -3 10 -8 18 -12 17 -4 0 -72 -37 -152 -82z"/>
<path d="M1687 3098 c2 -29 10 -172 18 -317 8 -145 15 -264 17 -265 2 -1 71
-59 231 -194 16 -14 17 0 17 280 l0 296 -65 42 c-60 39 -65 45 -65 79 0 34 -5
39 -73 84 -40 26 -76 47 -78 47 -3 0 -4 -24 -2 -52z"/>
<path d="M3028 3103 c-61 -41 -68 -49 -68 -79 0 -30 -7 -39 -70 -85 l-70 -51
0 -289 c0 -159 2 -289 5 -289 3 0 62 48 130 107 116 99 125 110 125 143 0 19
7 148 15 285 17 291 17 305 8 304 -5 -1 -38 -21 -75 -46z"/>
<path d="M752 3110 c15 -23 10 -21 67 -23 42 -2 71 12 71 34 0 5 -34 9 -75 9
-73 0 -75 -1 -63 -20z"/>
<path d="M320 3007 c0 -30 6 -31 210 -48 184 -15 460 -15 615 0 148 15 155 17
155 45 l0 22 -113 -13 c-61 -6 -211 -12 -332 -12 -198 0 -293 5 -477 25 -57 6
-58 6 -58 -19z"/>
<path d="M147 2972 l-59 -37 6 -134 c3 -74 6 -180 6 -236 l0 -102 44 -31 43
-31 6 107 c10 164 20 502 16 502 -2 0 -30 -17 -62 -38z"/>
<path d="M1400 2988 c0 -13 7 -133 15 -268 8 -135 15 -262 15 -283 l0 -38 45
31 45 31 0 238 0 238 -55 37 c-30 20 -57 36 -60 36 -3 0 -5 -10 -5 -22z"/>
<path d="M3424 2965 c2 -16 15 -153 28 -303 12 -150 25 -276 28 -280 5 -8 542
-234 545 -229 1 1 -109 155 -244 343 -375 518 -363 504 -357 469z"/>
<path d="M4517 2573 c-164 -228 -297 -416 -295 -417 2 -2 125 48 273 109 l270
113 27 298 c15 165 26 302 25 305 -1 4 -136 -180 -300 -408z"/>
<path d="M2139 2927 c-78 -35 -88 -43 -93 -71 -4 -17 -6 -160 -6 -317 l1 -286
44 -43 44 -43 19 44 c10 24 32 81 48 127 l29 82 171 0 171 0 48 -125 c26 -69
51 -125 54 -125 4 0 26 19 49 43 l42 43 0 304 c0 168 -4 310 -8 317 -7 10
-173 93 -187 93 -3 0 -5 -101 -5 -225 l0 -225 -159 0 c-133 0 -160 2 -165 15
-3 9 -5 108 -5 221 1 113 -1 207 -2 208 -2 2 -43 -15 -90 -37z"/>
<path d="M440 2884 c0 -44 4 -54 34 -83 33 -32 35 -32 45 -13 9 17 25 21 103
27 73 6 98 11 115 28 30 27 137 26 168 -2 15 -14 43 -21 108 -26 73 -6 89 -11
98 -27 10 -19 12 -19 45 13 30 29 34 39 34 83 l0 51 -375 0 -375 0 0 -51z
m238 4 l3 -28 -75 0 c-78 0 -85 4 -65 41 9 17 19 20 72 17 59 -3 62 -4 65 -30z
m412 -19 c0 -5 -33 -9 -74 -9 -72 0 -73 0 -69 25 5 21 11 24 57 27 39 2 55 -1
69 -16 9 -10 17 -22 17 -27z"/>
<path d="M780 2805 c0 -43 20 -46 55 -10 35 34 31 45 -15 45 -39 0 -40 -1 -40
-35z"/>
<path d="M391 2821 c-12 -7 -4 -22 38 -70 52 -60 71 -70 101 -51 12 8 4 20
-45 70 -61 62 -70 66 -94 51z"/>
<path d="M747 2823 c-11 -10 -8 -73 3 -73 6 0 10 18 10 40 0 41 -2 45 -13 33z"/>
<path d="M1137 2772 c-31 -32 -57 -60 -57 -64 0 -3 13 -11 29 -16 27 -10 31
-7 84 58 53 64 55 68 34 74 -12 3 -24 6 -27 6 -3 0 -31 -26 -63 -58z"/>
<path d="M888 2815 c-8 -8 4 -65 13 -65 12 0 12 57 0 64 -4 3 -10 3 -13 1z"/>
<path d="M688 2707 l-118 -50 0 -160 c0 -151 -1 -162 -22 -184 -12 -13 -20
-25 -17 -27 12 -11 272 -137 275 -133 2 2 3 139 2 304 l-3 300 -117 -50z"/>
<path d="M839 2739 c-1 -10 -1 -26 -1 -34 0 -8 0 -137 1 -285 l1 -270 130 65
c72 36 130 69 130 74 0 4 -9 16 -20 26 -18 17 -20 31 -20 180 l0 162 -110 51
c-99 46 -110 49 -111 31z"/>
<path d="M2252 2273 c-16 -43 -32 -88 -36 -100 l-7 -23 190 0 190 0 -25 66
c-13 37 -31 82 -39 100 l-14 34 -115 0 -114 0 -30 -77z"/>
<path d="M391 2278 l-84 -62 43 -20 42 -21 68 75 c38 41 66 78 64 82 -13 20
-56 2 -133 -54z"/>
<path d="M1103 2332 c-9 -5 11 -31 62 -82 l75 -74 40 20 41 19 -88 63 c-87 61
-106 69 -130 54z"/>
<path d="M230 1770 l0 -50 75 0 75 0 0 -265 c0 -146 2 -265 5 -265 3 0 30 19
60 41 l55 41 0 224 0 224 50 0 50 0 0 50 0 50 -185 0 -185 0 0 -50z"/>
<path d="M640 1625 l0 -196 58 3 57 3 3 143 3 142 39 0 c38 0 40 -2 40 -30 0
-28 -3 -30 -36 -30 -42 0 -42 1 22 -137 l43 -93 40 0 c39 0 41 2 41 30 0 17
-11 53 -25 80 -23 46 -24 50 -7 50 10 0 23 5 30 12 16 16 16 190 0 206 -8 8
-58 12 -160 12 l-148 0 0 -195z"/>
<path d="M1106 1792 c-27 -53 -136 -321 -136 -335 0 -19 22 -27 74 -27 l43 0
38 103 c58 154 54 150 81 83 41 -101 41 -96 -10 -96 l-46 0 0 -45 0 -46 117 3
c97 3 118 6 121 19 1 8 -30 95 -69 192 l-72 177 -63 0 c-59 0 -64 -2 -78 -28z"/>
<path d="M1400 1637 c0 -129 4 -187 12 -195 7 -7 34 -12 60 -12 l48 0 0 145 0
145 45 0 45 0 0 -145 0 -146 58 3 57 3 0 183 c0 152 -3 184 -15 192 -8 5 -81
10 -162 10 l-148 0 0 -183z"/>
<path d="M1771 1806 c-8 -9 -11 -48 -9 -112 l3 -99 98 -3 97 -3 0 -29 0 -30
-101 0 c-112 0 -110 2 -72 -72 l14 -28 120 0 c66 0 129 5 140 10 17 9 19 22
19 103 0 59 -4 97 -12 105 -8 8 -45 12 -100 12 l-88 0 0 30 0 30 100 0 100 0
0 50 0 50 -149 0 c-115 0 -151 -3 -160 -14z"/>
<path d="M2116 1812 c-8 -13 -4 -622 4 -622 6 0 52 33 102 75 15 12 17 35 17
167 l0 153 80 3 81 3 0 34 0 35 -79 0 c-76 0 -79 1 -83 25 -3 13 -3 27 0 30 3
3 50 5 104 5 58 0 98 4 99 10 1 6 1 21 1 35 0 59 11 55 -161 55 -88 0 -162 -4
-165 -8z"/>
<path d="M2472 1808 c-8 -8 -12 -63 -12 -183 0 -120 4 -175 12 -183 8 -8 56
-12 148 -12 180 0 170 -11 170 191 0 209 9 199 -169 199 -93 0 -141 -4 -149
-12z m198 -183 l0 -95 -45 0 -45 0 0 95 0 95 45 0 45 0 0 -95z"/>
<path d="M2820 1625 l0 -196 58 3 57 3 3 143 3 142 39 0 c38 0 40 -2 40 -30 0
-28 -3 -30 -36 -30 -42 0 -43 3 22 -136 l43 -94 51 0 c27 0 50 5 50 10 0 6
-16 42 -35 80 -31 61 -33 70 -17 70 10 0 23 5 30 12 16 16 16 190 0 206 -8 8
-58 12 -160 12 l-148 0 0 -195z"/>
<path d="M3170 1625 l0 -195 60 0 60 0 0 145 0 145 45 0 45 0 0 -145 0 -145
60 0 60 0 0 145 0 145 40 0 39 0 3 -142 3 -143 58 -3 57 -3 0 189 c0 164 -2
191 -16 196 -9 3 -128 6 -265 6 l-249 0 0 -195z"/>
<path d="M3740 1625 l0 -195 140 0 140 0 20 40 c11 21 20 44 20 50 0 6 -37 10
-100 10 l-100 0 0 30 0 30 80 0 80 0 0 35 0 35 -80 0 -80 0 0 30 0 30 80 0
c86 0 92 4 114 78 l7 22 -160 0 -161 0 0 -195z"/>
<path d="M4082 1628 l3 -193 58 -3 57 -3 0 146 0 145 43 0 c42 0 43 -1 39 -29
-3 -25 -9 -30 -36 -33 l-33 -3 51 -112 50 -113 46 0 c26 0 49 3 53 6 3 4 -9
37 -28 75 -19 38 -35 71 -35 74 0 3 9 5 20 5 30 0 39 29 37 124 -2 64 -6 90
-17 96 -8 6 -81 10 -163 10 l-147 0 2 -192z"/>
<path d="M4452 1808 c-8 -8 -12 -47 -12 -109 0 -79 3 -98 16 -103 9 -3 54 -6
100 -6 l84 0 0 -30 0 -30 -100 0 c-55 0 -100 -2 -100 -4 0 -2 9 -24 20 -50
l21 -46 128 0 c98 0 131 3 140 14 8 9 11 48 9 112 l-3 99 -97 3 -98 3 0 29 0
29 86 3 86 3 19 48 19 47 -153 0 c-106 0 -157 -4 -165 -12z"/>
</g>
</svg>
